<mxfile host="65bd71144e">
    <diagram id="PFj5AoRyFz8LDhigxnEz" name="añadir_pedido">
        <mxGraphModel dx="2769" dy="1209" grid="1" gridSize="10" guides="1" tooltips="1" connect="1" arrows="1" fold="1" page="1" pageScale="1" pageWidth="1169" pageHeight="827" background="#ffffff" math="0" shadow="0">
            <root>
                <mxCell id="0"/>
                <mxCell id="1" parent="0"/>
                <mxCell id="18" value="opt" style="shape=umlFrame;whiteSpace=wrap;html=1;labelBackgroundColor=none;fillColor=#f5f5f5;fontColor=#333333;strokeColor=#666666;" vertex="1" parent="1">
                    <mxGeometry x="-40" y="490" width="1340" height="380" as="geometry"/>
                </mxCell>
                <mxCell id="43" value="loop" style="shape=umlFrame;whiteSpace=wrap;html=1;labelBackgroundColor=none;fillColor=#dae8fc;strokeColor=#6c8ebf;" vertex="1" parent="1">
                    <mxGeometry x="-20" y="690" width="1080" height="150" as="geometry"/>
                </mxCell>
                <mxCell id="2" value="&lt;span style=&quot;background-color: rgb(255, 255, 255);&quot;&gt;Jugador&lt;/span&gt;" style="shape=umlLifeline;participant=umlActor;perimeter=lifelinePerimeter;whiteSpace=wrap;html=1;container=1;collapsible=0;recursiveResize=0;verticalAlign=top;spacingTop=36;outlineConnect=0;size=40;" vertex="1" parent="1">
                    <mxGeometry x="50" y="40" width="20" height="880" as="geometry"/>
                </mxCell>
                <mxCell id="6" value="" style="html=1;points=[];perimeter=orthogonalPerimeter;labelBackgroundColor=#FFFFFF;" vertex="1" parent="2">
                    <mxGeometry x="5" y="80" width="10" height="780" as="geometry"/>
                </mxCell>
                <mxCell id="3" value="Vista pedidos" style="shape=umlLifeline;participant=umlBoundary;perimeter=lifelinePerimeter;whiteSpace=wrap;html=1;container=1;collapsible=0;recursiveResize=0;verticalAlign=top;spacingTop=36;outlineConnect=0;labelBackgroundColor=#FFFFFF;size=30;" vertex="1" parent="1">
                    <mxGeometry x="280" y="40" width="40" height="880" as="geometry"/>
                </mxCell>
                <mxCell id="7" value="" style="html=1;points=[];perimeter=orthogonalPerimeter;labelBackgroundColor=#FFFFFF;" vertex="1" parent="3">
                    <mxGeometry x="15" y="100" width="10" height="760" as="geometry"/>
                </mxCell>
                <mxCell id="4" value="PedidosDAO" style="shape=umlLifeline;participant=umlEntity;perimeter=lifelinePerimeter;whiteSpace=wrap;html=1;container=1;collapsible=0;recursiveResize=0;verticalAlign=top;spacingTop=36;outlineConnect=0;labelBackgroundColor=#FFFFFF;" vertex="1" parent="1">
                    <mxGeometry x="1000" y="40" width="40" height="880" as="geometry"/>
                </mxCell>
                <mxCell id="35" value="" style="html=1;points=[];perimeter=orthogonalPerimeter;labelBackgroundColor=#FFFFFF;" vertex="1" parent="4">
                    <mxGeometry x="15" y="220" width="10" height="160" as="geometry"/>
                </mxCell>
                <mxCell id="39" value="" style="html=1;points=[];perimeter=orthogonalPerimeter;labelBackgroundColor=#FFFFFF;" vertex="1" parent="4">
                    <mxGeometry x="15" y="720" width="10" height="20" as="geometry"/>
                </mxCell>
                <mxCell id="5" value="Controlador" style="shape=umlLifeline;participant=umlControl;perimeter=lifelinePerimeter;whiteSpace=wrap;html=1;container=1;collapsible=0;recursiveResize=0;verticalAlign=top;spacingTop=36;outlineConnect=0;labelBackgroundColor=#FFFFFF;" vertex="1" parent="1">
                    <mxGeometry x="520" y="40" width="40" height="880" as="geometry"/>
                </mxCell>
                <mxCell id="12" value="" style="html=1;points=[];perimeter=orthogonalPerimeter;labelBackgroundColor=#FFFFFF;" vertex="1" parent="5">
                    <mxGeometry x="15" y="120" width="10" height="740" as="geometry"/>
                </mxCell>
                <mxCell id="8" value="Pulsar botón 'Añadir pedido'" style="html=1;verticalAlign=bottom;endArrow=block;" edge="1" parent="1" source="6" target="7">
                    <mxGeometry width="80" relative="1" as="geometry">
                        <mxPoint x="410" y="370" as="sourcePoint"/>
                        <mxPoint x="490" y="370" as="targetPoint"/>
                        <Array as="points">
                            <mxPoint x="180" y="140"/>
                        </Array>
                    </mxGeometry>
                </mxCell>
                <mxCell id="9" value="Mostrar lista con tipos de pedido" style="html=1;verticalAlign=bottom;endArrow=open;dashed=1;endSize=8;" edge="1" parent="1" source="7" target="6">
                    <mxGeometry relative="1" as="geometry">
                        <mxPoint x="490" y="370" as="sourcePoint"/>
                        <mxPoint x="410" y="370" as="targetPoint"/>
                        <Array as="points">
                            <mxPoint x="180" y="180"/>
                        </Array>
                    </mxGeometry>
                </mxCell>
                <mxCell id="10" value="Seleccionar tipo de pedido a crear" style="html=1;verticalAlign=bottom;endArrow=block;" edge="1" parent="1" source="6" target="7">
                    <mxGeometry width="80" relative="1" as="geometry">
                        <mxPoint x="75" y="150" as="sourcePoint"/>
                        <mxPoint x="305" y="150" as="targetPoint"/>
                        <Array as="points">
                            <mxPoint x="180" y="220"/>
                        </Array>
                    </mxGeometry>
                </mxCell>
                <mxCell id="11" value="Solicitar formulario (tipo pedido)" style="html=1;verticalAlign=bottom;endArrow=block;" edge="1" parent="1" source="7" target="12">
                    <mxGeometry width="80" relative="1" as="geometry">
                        <mxPoint x="310" y="239.9999999999999" as="sourcePoint"/>
                        <mxPoint x="540" y="239.9999999999999" as="targetPoint"/>
                        <Array as="points">
                            <mxPoint x="425" y="240"/>
                        </Array>
                    </mxGeometry>
                </mxCell>
                <mxCell id="14" value="Mostrar formulario" style="html=1;verticalAlign=bottom;endArrow=open;dashed=1;endSize=8;" edge="1" parent="1">
                    <mxGeometry relative="1" as="geometry">
                        <mxPoint x="534.9999999999995" y="300" as="sourcePoint"/>
                        <mxPoint x="305" y="300" as="targetPoint"/>
                        <Array as="points">
                            <mxPoint x="425" y="300"/>
                        </Array>
                    </mxGeometry>
                </mxCell>
                <mxCell id="16" value="Mostrar formulario" style="html=1;verticalAlign=bottom;endArrow=open;dashed=1;endSize=8;" edge="1" parent="1">
                    <mxGeometry relative="1" as="geometry">
                        <mxPoint x="295" y="320" as="sourcePoint"/>
                        <mxPoint x="65" y="320" as="targetPoint"/>
                        <Array as="points">
                            <mxPoint x="180" y="320"/>
                        </Array>
                    </mxGeometry>
                </mxCell>
                <mxCell id="17" value="Insertar datos del pedido" style="html=1;verticalAlign=bottom;endArrow=block;" edge="1" parent="1">
                    <mxGeometry width="80" relative="1" as="geometry">
                        <mxPoint x="65" y="360" as="sourcePoint"/>
                        <mxPoint x="295" y="360" as="targetPoint"/>
                        <Array as="points">
                            <mxPoint x="180" y="360"/>
                        </Array>
                    </mxGeometry>
                </mxCell>
                <mxCell id="19" value="Pulsar botón 'Añadir componente'" style="html=1;verticalAlign=bottom;endArrow=block;" edge="1" parent="1">
                    <mxGeometry width="80" relative="1" as="geometry">
                        <mxPoint x="65" y="520.0000000000002" as="sourcePoint"/>
                        <mxPoint x="295" y="520.0000000000002" as="targetPoint"/>
                        <Array as="points">
                            <mxPoint x="190" y="520"/>
                        </Array>
                    </mxGeometry>
                </mxCell>
                <mxCell id="21" value="Solicitar lista de componentes" style="html=1;verticalAlign=bottom;endArrow=block;" edge="1" parent="1">
                    <mxGeometry width="80" relative="1" as="geometry">
                        <mxPoint x="305" y="540.0000000000002" as="sourcePoint"/>
                        <mxPoint x="534.9999999999995" y="540.0000000000002" as="targetPoint"/>
                        <Array as="points">
                            <mxPoint x="420" y="540"/>
                        </Array>
                    </mxGeometry>
                </mxCell>
                <mxCell id="22" value="ComponentesDAO" style="shape=umlLifeline;participant=umlEntity;perimeter=lifelinePerimeter;whiteSpace=wrap;html=1;container=1;collapsible=0;recursiveResize=0;verticalAlign=top;spacingTop=36;outlineConnect=0;labelBackgroundColor=#FFFFFF;" vertex="1" parent="1">
                    <mxGeometry x="760" y="40" width="40" height="880" as="geometry"/>
                </mxCell>
                <mxCell id="25" value="" style="html=1;points=[];perimeter=orthogonalPerimeter;labelBackgroundColor=#FFFFFF;" vertex="1" parent="22">
                    <mxGeometry x="15" y="520" width="10" height="60" as="geometry"/>
                </mxCell>
                <mxCell id="23" value="DB" style="shape=umlLifeline;perimeter=lifelinePerimeter;whiteSpace=wrap;html=1;container=1;collapsible=0;recursiveResize=0;outlineConnect=0;labelBackgroundColor=#FFFFFF;" vertex="1" parent="1">
                    <mxGeometry x="1220" y="40" width="80" height="880" as="geometry"/>
                </mxCell>
                <mxCell id="26" value="" style="html=1;points=[];perimeter=orthogonalPerimeter;labelBackgroundColor=#FFFFFF;" vertex="1" parent="23">
                    <mxGeometry x="35" y="540" width="10" height="20" as="geometry"/>
                </mxCell>
                <mxCell id="24" value="Solicitar lista de componentes" style="html=1;verticalAlign=bottom;endArrow=block;" edge="1" parent="1">
                    <mxGeometry width="80" relative="1" as="geometry">
                        <mxPoint x="544.9999999999995" y="560.0000000000002" as="sourcePoint"/>
                        <mxPoint x="774.9999999999995" y="560.0000000000002" as="targetPoint"/>
                        <Array as="points">
                            <mxPoint x="660" y="560"/>
                        </Array>
                    </mxGeometry>
                </mxCell>
                <mxCell id="28" value="Obtener componentes" style="html=1;verticalAlign=bottom;endArrow=block;" edge="1" parent="1">
                    <mxGeometry width="80" relative="1" as="geometry">
                        <mxPoint x="784.9999999999995" y="580.0000000000002" as="sourcePoint"/>
                        <mxPoint x="1254.9999999999995" y="580.0000000000002" as="targetPoint"/>
                        <Array as="points">
                            <mxPoint x="1020" y="580"/>
                        </Array>
                    </mxGeometry>
                </mxCell>
                <mxCell id="29" value="" style="html=1;verticalAlign=bottom;endArrow=open;dashed=1;endSize=8;" edge="1" parent="1">
                    <mxGeometry relative="1" as="geometry">
                        <mxPoint x="1254.9999999999995" y="600.0000000000002" as="sourcePoint"/>
                        <mxPoint x="784.9999999999995" y="600.0000000000002" as="targetPoint"/>
                        <Array as="points">
                            <mxPoint x="1020" y="600"/>
                        </Array>
                    </mxGeometry>
                </mxCell>
                <mxCell id="30" value="" style="html=1;verticalAlign=bottom;endArrow=open;dashed=1;endSize=8;" edge="1" parent="1">
                    <mxGeometry relative="1" as="geometry">
                        <mxPoint x="774.9999999999995" y="620.0000000000002" as="sourcePoint"/>
                        <mxPoint x="544.9999999999995" y="620.0000000000002" as="targetPoint"/>
                        <Array as="points">
                            <mxPoint x="660" y="620"/>
                        </Array>
                    </mxGeometry>
                </mxCell>
                <mxCell id="31" value="Mostrar lista de componentes" style="html=1;verticalAlign=bottom;endArrow=open;dashed=1;endSize=8;" edge="1" parent="1">
                    <mxGeometry relative="1" as="geometry">
                        <mxPoint x="534.9999999999995" y="640.0000000000002" as="sourcePoint"/>
                        <mxPoint x="305" y="640.0000000000002" as="targetPoint"/>
                        <Array as="points">
                            <mxPoint x="420" y="640"/>
                        </Array>
                    </mxGeometry>
                </mxCell>
                <mxCell id="32" value="Mostrar lista de componentes" style="html=1;verticalAlign=bottom;endArrow=open;dashed=1;endSize=8;" edge="1" parent="1">
                    <mxGeometry relative="1" as="geometry">
                        <mxPoint x="295" y="660.0000000000002" as="sourcePoint"/>
                        <mxPoint x="65" y="660.0000000000002" as="targetPoint"/>
                        <Array as="points">
                            <mxPoint x="180" y="660"/>
                        </Array>
                    </mxGeometry>
                </mxCell>
                <mxCell id="33" value="Seleccionar componente" style="html=1;verticalAlign=bottom;endArrow=block;" edge="1" parent="1">
                    <mxGeometry width="80" relative="1" as="geometry">
                        <mxPoint x="65" y="720.0000000000002" as="sourcePoint"/>
                        <mxPoint x="295" y="720.0000000000002" as="targetPoint"/>
                        <Array as="points">
                            <mxPoint x="180" y="720"/>
                        </Array>
                    </mxGeometry>
                </mxCell>
                <mxCell id="34" value="Crear pedido" style="html=1;verticalAlign=bottom;endArrow=block;" edge="1" parent="1" source="12" target="35">
                    <mxGeometry width="80" relative="1" as="geometry">
                        <mxPoint x="315" y="250" as="sourcePoint"/>
                        <mxPoint x="545" y="250" as="targetPoint"/>
                        <Array as="points">
                            <mxPoint x="780" y="260"/>
                        </Array>
                    </mxGeometry>
                </mxCell>
                <mxCell id="36" value="" style="html=1;verticalAlign=bottom;endArrow=open;dashed=1;endSize=8;" edge="1" parent="1" source="35" target="12">
                    <mxGeometry relative="1" as="geometry">
                        <mxPoint x="680" y="530" as="sourcePoint"/>
                        <mxPoint x="600" y="530" as="targetPoint"/>
                        <Array as="points">
                            <mxPoint x="790" y="280"/>
                        </Array>
                    </mxGeometry>
                </mxCell>
                <mxCell id="37" value="Añadir componente" style="html=1;verticalAlign=bottom;endArrow=block;" edge="1" parent="1">
                    <mxGeometry width="80" relative="1" as="geometry">
                        <mxPoint x="305" y="740" as="sourcePoint"/>
                        <mxPoint x="535" y="740" as="targetPoint"/>
                        <Array as="points">
                            <mxPoint x="420" y="740"/>
                        </Array>
                    </mxGeometry>
                </mxCell>
                <mxCell id="38" value="Añadir componente" style="html=1;verticalAlign=bottom;endArrow=block;" edge="1" parent="1" target="39">
                    <mxGeometry width="80" relative="1" as="geometry">
                        <mxPoint x="545" y="760" as="sourcePoint"/>
                        <mxPoint x="840" y="1010" as="targetPoint"/>
                        <Array as="points">
                            <mxPoint x="780" y="760"/>
                        </Array>
                    </mxGeometry>
                </mxCell>
                <mxCell id="40" value="" style="html=1;verticalAlign=bottom;endArrow=open;dashed=1;endSize=8;" edge="1" parent="1" source="39">
                    <mxGeometry relative="1" as="geometry">
                        <mxPoint x="1264.9999999999995" y="630.0000000000002" as="sourcePoint"/>
                        <mxPoint x="545" y="780" as="targetPoint"/>
                        <Array as="points">
                            <mxPoint x="780" y="780"/>
                        </Array>
                    </mxGeometry>
                </mxCell>
                <mxCell id="44" value="" style="html=1;verticalAlign=bottom;endArrow=open;dashed=1;endSize=8;" edge="1" parent="1">
                    <mxGeometry relative="1" as="geometry">
                        <mxPoint x="535" y="800" as="sourcePoint"/>
                        <mxPoint x="305" y="800" as="targetPoint"/>
                        <Array as="points">
                            <mxPoint x="430" y="800"/>
                        </Array>
                    </mxGeometry>
                </mxCell>
                <mxCell id="45" value="" style="html=1;verticalAlign=bottom;endArrow=open;dashed=1;endSize=8;" edge="1" parent="1">
                    <mxGeometry relative="1" as="geometry">
                        <mxPoint x="295" y="820" as="sourcePoint"/>
                        <mxPoint x="65" y="820" as="targetPoint"/>
                        <Array as="points">
                            <mxPoint x="195" y="820"/>
                        </Array>
                    </mxGeometry>
                </mxCell>
                <mxCell id="46" value="Insertar datos del pedido" style="html=1;verticalAlign=bottom;endArrow=block;" edge="1" parent="1" source="7" target="12">
                    <mxGeometry width="80" relative="1" as="geometry">
                        <mxPoint x="310" y="380" as="sourcePoint"/>
                        <mxPoint x="540" y="380" as="targetPoint"/>
                        <Array as="points">
                            <mxPoint x="425" y="380"/>
                        </Array>
                    </mxGeometry>
                </mxCell>
                <mxCell id="48" value="Insertar datos del pedido" style="html=1;verticalAlign=bottom;endArrow=block;" edge="1" parent="1" source="12" target="35">
                    <mxGeometry width="80" relative="1" as="geometry">
                        <mxPoint x="315" y="390" as="sourcePoint"/>
                        <mxPoint x="545" y="390" as="targetPoint"/>
                        <Array as="points">
                            <mxPoint x="780" y="400"/>
                        </Array>
                    </mxGeometry>
                </mxCell>
                <mxCell id="49" value="" style="html=1;verticalAlign=bottom;endArrow=open;dashed=1;endSize=8;" edge="1" parent="1" source="35" target="12">
                    <mxGeometry relative="1" as="geometry">
                        <mxPoint x="1025" y="290" as="sourcePoint"/>
                        <mxPoint x="555" y="290" as="targetPoint"/>
                        <Array as="points">
                            <mxPoint x="780" y="420"/>
                        </Array>
                    </mxGeometry>
                </mxCell>
                <mxCell id="50" value="" style="html=1;verticalAlign=bottom;endArrow=open;dashed=1;endSize=8;" edge="1" parent="1" source="12" target="7">
                    <mxGeometry relative="1" as="geometry">
                        <mxPoint x="540" y="420" as="sourcePoint"/>
                        <mxPoint x="305" y="420" as="targetPoint"/>
                        <Array as="points">
                            <mxPoint x="410" y="440"/>
                        </Array>
                    </mxGeometry>
                </mxCell>
                <mxCell id="51" value="" style="html=1;verticalAlign=bottom;endArrow=open;dashed=1;endSize=8;" edge="1" parent="1" source="7" target="6">
                    <mxGeometry relative="1" as="geometry">
                        <mxPoint x="545" y="450" as="sourcePoint"/>
                        <mxPoint x="315" y="450" as="targetPoint"/>
                        <Array as="points">
                            <mxPoint x="180" y="460"/>
                        </Array>
                    </mxGeometry>
                </mxCell>
            </root>
        </mxGraphModel>
    </diagram>
</mxfile>